<svg xmlns="http://www.w3.org/2000/svg" viewBox="0 0 459.7 459.7" width="459.7" height="459.7"><path d="M392.381 67.322C348.968 23.909 291.248 0 229.852 0S110.735 23.909 67.322 67.322C23.909 110.735 0 168.456 0 229.852s23.909 119.117 67.322 162.53c43.413 43.414 101.134 67.322 162.53 67.322s119.116-23.909 162.529-67.322c43.414-43.413 67.322-101.134 67.322-162.53.001-61.396-23.908-119.117-67.322-162.53zm-72.786 241.661c19.336-21.869 29.908-49.686 29.908-79.132 0-29.445-10.572-57.262-29.908-79.131l67.384-67.384c37.274 39.906 57.724 91.636 57.724 146.516 0 54.88-20.45 106.61-57.724 146.516l-67.384-67.385zm-163.743-5.131c-17.492-17.492-28.022-40.086-30.216-64.426a46.67 46.67 0 0 0 18.969 4.01c10.444 0 20.308-3.37 28.417-9.608 8.104 6.238 17.965 9.608 28.413 9.608 10.451 0 20.315-3.37 28.42-9.606 8.103 6.237 17.964 9.606 28.41 9.606 10.444 0 20.308-3.371 28.417-9.608 8.104 6.238 17.965 9.608 28.413 9.608a46.698 46.698 0 0 0 18.972-4.008c-2.194 24.339-12.724 46.933-30.216 64.424-19.766 19.766-46.046 30.651-74 30.651-27.953 0-54.233-10.885-73.999-30.651zm0-148c19.766-19.766 46.046-30.651 74-30.651 27.953 0 54.233 10.885 74 30.651 17.912 17.912 28.531 41.174 30.366 66.182-5.476 4.146-12.149 6.402-19.122 6.402-8.769 0-16.93-3.496-22.981-9.845a7.497 7.497 0 0 0-5.426-2.325h-.002c-2.05 0-4.01.839-5.425 2.322-6.062 6.351-14.228 9.848-22.995 9.848-8.769 0-16.93-3.496-22.981-9.845a7.498 7.498 0 0 0-10.858 0c-6.051 6.349-14.216 9.845-22.991 9.845-8.769 0-16.93-3.496-22.981-9.845a7.497 7.497 0 0 0-5.426-2.325h-.002c-2.05 0-4.01.839-5.426 2.322-6.061 6.351-14.227 9.848-22.994 9.848a31.567 31.567 0 0 1-19.119-6.407c1.833-25.007 12.452-48.267 30.363-66.177zm220.522-83.123l-67.384 67.384c-21.87-19.339-49.689-29.913-79.137-29.913-29.446 0-57.263 10.572-79.132 29.908L83.336 72.724C123.242 35.45 174.972 15 229.852 15c54.883 0 106.615 20.452 146.522 57.729zM15 229.852c0-54.883 20.452-106.614 57.729-146.521l67.384 67.384c-19.339 21.87-29.913 49.689-29.913 79.137s10.574 57.267 29.914 79.138L72.73 376.373C35.452 336.467 15 284.734 15 229.852zM83.336 386.98l67.385-67.385c21.869 19.336 49.686 29.908 79.131 29.908 29.448 0 57.267-10.574 79.137-29.913l67.385 67.384c-39.907 37.277-91.639 57.729-146.521 57.729-54.881.001-106.611-20.449-146.517-57.723z"/><path d="M235.531 58.451c33.251 1.094 65.171 11.683 92.309 30.62a7.46 7.46 0 0 0 4.286 1.35 7.499 7.499 0 0 0 4.299-13.65c-29.523-20.602-64.24-32.121-100.399-33.312a7.499 7.499 0 1 0-.495 14.992zm159.431 84.587a186.083 186.083 0 0 0-8.971-15.236 7.5 7.5 0 1 0-12.548 8.218 171.586 171.586 0 0 1 8.246 14.003 7.497 7.497 0 0 0 10.13 3.143 7.497 7.497 0 0 0 3.143-10.128zm14.092 35.052a7.5 7.5 0 0 0-14.414 4.15c8.006 27.808 8.853 57.439 2.45 85.69a7.499 7.499 0 0 0 7.322 9.159 7.503 7.503 0 0 0 7.308-5.844c6.959-30.71 6.038-62.922-2.666-93.155zM258.265 292.356c12.906 0 24.926-5.146 33.845-14.492a7.5 7.5 0 0 0-.247-10.604 7.5 7.5 0 0 0-10.604.247c-6.062 6.351-14.228 9.848-22.995 9.848-8.769 0-16.93-3.496-22.981-9.845a7.498 7.498 0 0 0-10.858 0c-6.051 6.349-14.216 9.845-22.991 9.845-8.769 0-16.93-3.496-22.981-9.845a7.5 7.5 0 0 0-10.858 10.35c8.909 9.347 20.927 14.495 33.839 14.495 10.451 0 20.315-3.37 28.42-9.606 8.104 6.237 17.965 9.607 28.411 9.607z"/></svg>