<svg height="500" viewBox="0 0 500 500" width="500" xmlns="http://www.w3.org/2000/svg"><path d="m168.3 189.7-8.2 23.4h16.4z"/><path d="m220 357.5c-32.1-15.4-88.3-52.9-88.3-79s.9-30.2 7.7-27.9c0 0 .8 14.8 20.9 18.1s61.4 5.6 89.7 48.4c28.3-42.8 69.9-45.2 89.7-48.4s20.9-18.1 20.9-18.1c6.8-2.3 7.7 1.8 7.7 27.9s-56.2 63.6-88.3 79c-14.7 7-18.9 23.1-19.1 38.4a152.3 152.3 0 1 0 -21.8 0c-.2-15.3-4.4-31.4-19.1-38.4zm89.9-188.7h28.6a26.6 26.6 0 0 1 10.2 1.8 18.8 18.8 0 0 1 7.3 4.7 20.6 20.6 0 0 1 4.3 6.9 23.2 23.2 0 0 1 1.4 8.4c0 5.4-1.3 9.7-3.8 13.1s-6.4 5.5-11.5 6.7l22.2 28.9h-22.9l-17.4-27.1v27.1h-18.4zm-88 0h18.2l14.1 37.6 14-37.6h18.2l11.9 70.5h-18.2l-6.1-40.6-16.6 40.6h-7.3l-15.8-40.6-6.1 40.6h-18.2zm-63.6 0h20l26.8 70.5h-19.5l-4.2-12.2h-26.2l-4.2 12.2h-19.6z"/><path d="m340 198.1a7.6 7.6 0 0 0 2.9-6.5 7.4 7.4 0 0 0 -2.9-6.4c-1.9-1.5-4.7-2.3-8.3-2.3h-3.4v17.4h3.4c3.6 0 6.4-.7 8.3-2.2zm-88.9 120.7c-.4-.5-.7-1.1-1.1-1.7s-.7 1.2-1.1 1.7z"/></svg>