<?xml version="1.0" encoding="utf-8"?>
<!-- Generator: Adobe Illustrator 23.0.4, SVG Export Plug-In . SVG Version: 6.00 Build 0)  -->
<svg version="1.1" id="Layer_1" xmlns="http://www.w3.org/2000/svg" xmlns:xlink="http://www.w3.org/1999/xlink" x="0px" y="0px"
	 viewBox="0 0 500 500" style="enable-background:new 0 0 500 500;" xml:space="preserve">
<g>
	<polygon points="102.2,199.6 129.2,199.6 115.7,161.1 	"/>
	<path d="M499.7,232.4C489.8,94.5,370-9.2,232.1,0.7C94.2,10.5-9.6,130.4,0.3,268.2C9.2,392.4,108,491.1,232.1,500
		c-0.3-25.1-7.2-51.6-31.4-63.1C147.9,411.6,55.6,349.9,55.6,307c0-42.9,1.5-49.6,12.7-45.9c0,0,1.3,24.3,34.4,29.7
		c33,5.4,100.9,9.2,147.4,79.5c46.5-70.3,114.9-74.3,147.4-79.5c32.5-5.3,34.4-29.7,34.4-29.7c11.2-3.8,12.7,3,12.7,45.9
		s-92.4,104.5-145.1,129.8c-24.2,11.5-31.1,38-31.4,63.1C405.8,490.1,509.6,370.3,499.7,232.4z M144.2,242.6l-6.9-20.1H94.2
		l-6.9,20.1H55.1l44.2-115.9h32.9l44,115.9H144.2z M299.5,242.6l-10-66.7l-27.3,66.7h-12l-26-66.7l-10,66.7h-29.9l19.6-115.9h29.9
		l23.2,61.8l23-61.8h29.9l19.6,115.9H299.5z M407.3,242.6l-28.6-44.5v44.5h-30.2V126.7h47c5.7-0.1,11.4,0.9,16.8,3
		c4.5,1.6,8.7,4.2,12,7.7c3.1,3.3,5.5,7.1,7.1,11.3c1.6,4.4,2.4,9.1,2.3,13.8c0,8.9-2.1,15.9-6.2,21.5c-4.1,5.6-10.5,9-18.9,11
		l36.5,47.5H407.3z"/>
	<path d="M397.9,153.7c-3.1-2.5-7.7-3.8-13.6-3.8h-5.6v28.6h5.6c5.9,0,10.5-1.2,13.6-3.6c3.3-2.6,5-6.6,4.8-10.7
		C403,160.1,401.2,156.2,397.9,153.7z"/>
	<path d="M248.2,373.3h3.6c-0.7-0.8-1.2-1.8-1.8-2.8C249.3,369.5,248.8,372.5,248.2,373.3z"/>
</g>
</svg>
