<svg xmlns="http://www.w3.org/2000/svg" viewBox="0 0 500 500" width="500" height="500"><path d="M102.2 199.6h27l-13.5-38.5z"/><path d="M499.7 232.4C489.8 94.5 370-9.2 232.1.7 94.2 10.5-9.6 130.4.3 268.2 9.2 392.4 108 491.1 232.1 500c-.3-25.1-7.2-51.6-31.4-63.1-52.8-25.3-145.1-87-145.1-129.9 0-42.9 1.5-49.6 12.7-45.9 0 0 1.3 24.3 34.4 29.7 33 5.4 100.9 9.2 147.4 79.5C296.6 300 365 296 397.5 290.8c32.5-5.3 34.4-29.7 34.4-29.7 11.2-3.8 12.7 3 12.7 45.9s-92.4 104.5-145.1 129.8c-24.2 11.5-31.1 38-31.4 63.1 137.7-9.8 241.5-129.6 231.6-267.5zm-355.5 10.2l-6.9-20.1H94.2l-6.9 20.1H55.1l44.2-115.9h32.9l44 115.9h-32zm155.3 0l-10-66.7-27.3 66.7h-12l-26-66.7-10 66.7h-29.9l19.6-115.9h29.9l23.2 61.8 23-61.8h29.9l19.6 115.9h-30zm107.8 0l-28.6-44.5v44.5h-30.2V126.7h47c5.7-.1 11.4.9 16.8 3 4.5 1.6 8.7 4.2 12 7.7 3.1 3.3 5.5 7.1 7.1 11.3 1.6 4.4 2.4 9.1 2.3 13.8 0 8.9-2.1 15.9-6.2 21.5s-10.5 9-18.9 11l36.5 47.5h-37.8z"/><path d="M397.9 153.7c-3.1-2.5-7.7-3.8-13.6-3.8h-5.6v28.6h5.6c5.9 0 10.5-1.2 13.6-3.6 3.3-2.6 5-6.6 4.8-10.7.3-4.1-1.5-8-4.8-10.5zM248.2 373.3h3.6c-.7-.8-1.2-1.8-1.8-2.8-.7-1-1.2 2-1.8 2.8z"/></svg>