<svg xmlns="http://www.w3.org/2000/svg" width="512pt" height="512pt" viewBox="-1 0 512 512"><path d="M489.988 160.215a21.775 21.775 0 0 0-7.515 1.039v-32.34c0-11.883-9.668-21.55-21.551-21.55-2.29 0-4.492.363-6.563 1.027-.226-11.688-9.789-21.133-21.53-21.133h-.43c-8.188 0-15.32 4.59-18.97 11.336a21.368 21.368 0 0 0-9.12-2.055h-.43c-11.887 0-21.555 9.668-21.555 21.55V129a21.533 21.533 0 0 0-6.539-1.02h-.535c-11.727 0-21.39 9.536-21.547 21.258-.062 4.95-.941 54.102.164 73.774 1.469 26.113 8.024 46.39 19.48 60.277 1.856 2.25 2.88 5.024 2.88 7.816v24.536h-.153c-6.898 0-12.512 5.613-12.512 12.507v16.043c-4.464 1.399-7.71 5.57-7.71 10.489v149.816a7.504 7.504 0 0 0 7.503 7.504H482.68a7.504 7.504 0 0 0 7.504-7.504V358.828c0-5.648-3.114-10.574-7.711-13.176v-17.504c0-6.675-5.262-12.132-11.856-12.476v-19.883c0-3.715 1.649-7.144 4.524-9.414.484-.383.984-.785 1.5-1.215.039-.027.074-.058.109-.09 14.703-12.664 24.488-27.324 29.914-44.812 2.84-9.145 4.277-18.719 4.277-28.457v-29.516c0-11.957-9.203-21.652-20.953-22.07zm-15.02 198.488h.079c.066 0 .125.055.125.125v138.16H370.863V358.703zm-96.394-15.012v-13.039h88.887v13.04zm117.356-131.89c0 8.226-1.211 16.304-3.602 24.012-4.625 14.902-12.668 26.925-25.32 37.835-.399.332-.793.649-1.168.946-6.504 5.129-10.235 12.855-10.235 21.195v19.852h-64.367v-24.536c0-6.27-2.242-12.44-6.312-17.37-9.38-11.364-14.785-28.715-16.07-51.567-1.079-19.117-.208-67.758-.141-72.734.047-3.551 2.98-6.442 6.535-6.442h.535a6.5 6.5 0 0 1 4.625 1.914 6.507 6.507 0 0 1 1.914 4.625v42.14a7.507 7.507 0 0 0 15.012 0V118.09a6.55 6.55 0 0 1 6.543-6.543h.43c3.605 0 6.539 2.937 6.539 6.543v73.582a7.507 7.507 0 0 0 15.012 0v-82.863a6.547 6.547 0 0 1 6.538-6.54h.43a6.548 6.548 0 0 1 6.543 6.54v82.863c0 4.144 3.36 7.504 7.504 7.504s7.508-3.36 7.508-7.504v-62.758c0-3.605 2.933-6.543 6.539-6.543s6.539 2.938 6.539 6.543v86.832a3.21 3.21 0 0 1-1.777 2.863c-7.704 3.922-18.52 10.688-26.293 20.621a7.503 7.503 0 0 0 1.285 10.536 7.468 7.468 0 0 0 4.62 1.597 7.487 7.487 0 0 0 5.915-2.883c6.402-8.18 16.086-13.843 21.285-16.492 6.156-3.136 9.98-9.36 9.98-16.242v-33.805c0-1.84.731-3.562 2.055-4.84a6.677 6.677 0 0 1 4.926-1.882c3.57.129 6.477 3.297 6.477 7.066v29.516zM137.598 340c11.457-13.887 18.011-34.164 19.48-60.277 1.106-19.676.75-39.625.406-58.918-.09-4.953-.18-9.907-.242-14.86-.156-11.718-9.82-21.254-21.55-21.254h-.532c-2.281 0-4.476.36-6.543 1.02V174.8c0-11.887-9.668-21.551-21.55-21.551h-.43c-3.262 0-6.348.75-9.121 2.055-3.649-6.742-10.782-11.336-18.973-11.336h-.426c-11.746 0-21.308 9.445-21.531 21.133a21.463 21.463 0 0 0-6.563-1.028c-11.886 0-21.554 9.668-21.554 21.551v32.34a21.775 21.775 0 0 0-7.516-1.04C9.203 217.345 0 227.04 0 238.997v29.516c0 9.734 1.441 19.308 4.277 28.457 5.426 17.488 15.211 32.144 29.918 44.812a86.215 86.215 0 0 0 1.61 1.305c2.875 2.266 4.523 5.7 4.523 9.414v19.883c-6.594.344-11.855 5.8-11.855 12.476v17.504c-4.598 2.602-7.711 7.528-7.711 13.176v33.98a7.504 7.504 0 0 0 7.504 7.504 7.504 7.504 0 0 0 7.507-7.503v-33.98c0-.071.059-.126.125-.126h104.184v81.574H35.77v-12.402a7.504 7.504 0 1 0-15.008 0v19.91A7.504 7.504 0 0 0 28.266 512h119.32a7.507 7.507 0 0 0 7.508-7.504v-93.105c0-4.918-3.25-9.09-7.711-10.489V384.86c0-6.898-5.613-12.507-12.512-12.507h-.152v-24.536c0-2.793 1.02-5.57 2.879-7.816zm-5.227 60.402H43.484V387.36h88.887zm-6.351-69.957c-4.07 4.93-6.313 11.102-6.313 17.371v24.536H55.336V352.5c0-8.34-3.73-16.063-10.234-21.2-.38-.296-.77-.613-1.168-.94-12.649-10.91-20.696-22.938-25.32-37.84-2.391-7.704-3.602-15.782-3.602-24.008v-29.516c0-3.77 2.906-6.941 6.476-7.066a6.68 6.68 0 0 1 4.922 1.879 6.672 6.672 0 0 1 2.059 4.843v33.801c0 6.883 3.824 13.11 9.98 16.242 5.2 2.649 14.88 8.313 21.285 16.496a7.494 7.494 0 0 0 5.914 2.88 7.508 7.508 0 0 0 5.906-12.133c-7.773-9.934-18.59-16.696-26.292-20.618-1.098-.562-1.778-1.66-1.778-2.867v-86.828c0-3.61 2.934-6.54 6.54-6.54a6.547 6.547 0 0 1 6.538 6.54v62.754a7.508 7.508 0 0 0 7.508 7.508 7.504 7.504 0 0 0 7.504-7.508v-82.86c0-3.605 2.934-6.539 6.543-6.539h.43a6.547 6.547 0 0 1 6.539 6.54v82.863a7.504 7.504 0 0 0 7.508 7.504 7.504 7.504 0 0 0 7.504-7.504V174.8c0-3.61 2.933-6.54 6.539-6.54h.43a6.547 6.547 0 0 1 6.542 6.54v73.578a7.505 7.505 0 1 0 15.012 0v-42.137a6.547 6.547 0 0 1 6.54-6.539h.534c3.559 0 6.489 2.887 6.535 6.442.067 4.976.157 9.953.243 14.93.343 19.019.695 38.687-.383 57.804-1.285 22.851-6.695 40.2-16.07 51.566zM321.504 81.867a23.514 23.514 0 0 0-9.317 1.547V45.828c0-12.828-10.437-23.27-23.269-23.27-2.906 0-5.688.544-8.254 1.52v-.808c0-12.832-10.437-23.27-23.27-23.27h-.48c-9.148 0-17.074 5.309-20.875 13.004a23.097 23.097 0 0 0-10.648-2.59h-.48c-12.829 0-23.266 10.438-23.266 23.266v13.535a23.199 23.199 0 0 0-8.258-1.52h-.598c-12.66 0-23.098 10.297-23.262 22.95-.074 5.554-1.058 60.675.18 82.718 1.637 29.102 8.922 51.68 21.652 67.106 2.22 2.687 3.442 6.011 3.442 9.355v28.446h-1.09c-7.234 0-13.121 5.886-13.121 13.12v18.708c-4.961 1.238-8.653 5.722-8.653 11.062v205.336a7.507 7.507 0 0 0 7.504 7.508h133.891a7.507 7.507 0 0 0 7.504-7.508V357.988a7.504 7.504 0 1 0-15.008 0v139H186.945V302.754H304.77c.582 0 1.058.476 1.058 1.059v19.335a7.504 7.504 0 1 0 15.008 0v-19.335c0-6.184-3.516-11.555-8.652-14.243v-20.18c0-7.238-5.887-13.124-13.122-13.124h-.18v-23.188c0-4.453 1.977-8.562 5.423-11.285a89.945 89.945 0 0 0 1.668-1.348l.109-.093c16.363-14.094 27.254-30.403 33.29-49.856 3.16-10.176 4.757-20.832 4.757-31.66V105.71c.004-12.918-9.938-23.395-22.625-23.844zM195.598 287.742v-16.465h101.578v16.465zM329.12 138.836c0 9.32-1.375 18.476-4.086 27.21-5.242 16.9-14.36 30.528-28.695 42.888-.461.379-.906.738-1.336 1.078-7.074 5.586-11.133 13.992-11.133 23.066v23.192h-74.06v-28.45c0-6.82-2.442-13.539-6.872-18.91-10.652-12.906-16.789-32.55-18.242-58.39-1.21-21.489-.816-43.575-.433-64.934.101-5.582.199-11.168.273-16.746.059-4.485 3.762-8.133 8.254-8.133h.598c4.55 0 8.254 3.703 8.254 8.258v47.281a7.51 7.51 0 0 0 7.507 7.508 7.507 7.507 0 0 0 7.504-7.508V33.68c0-4.551 3.703-8.254 8.258-8.254h.48c4.551 0 8.258 3.703 8.258 8.254v82.566a7.507 7.507 0 0 0 7.504 7.508 7.507 7.507 0 0 0 7.504-7.508V23.27c0-4.555 3.707-8.258 8.258-8.258h.48c4.555 0 8.258 3.703 8.258 8.258v92.976c0 4.145 3.36 7.508 7.504 7.508s7.508-3.363 7.508-7.508V45.828c0-4.555 3.703-8.258 8.254-8.258 4.555 0 8.258 3.703 8.258 8.258v97.43c0 1.703-.957 3.246-2.5 4.031-8.559 4.36-20.574 11.871-29.196 22.887a7.5 7.5 0 0 0 1.286 10.535 7.445 7.445 0 0 0 4.62 1.598 7.487 7.487 0 0 0 5.915-2.883c7.293-9.32 18.285-15.754 24.187-18.758 6.602-3.363 10.7-10.031 10.7-17.41v-37.93c0-2.316.917-4.484 2.585-6.094 1.668-1.609 3.875-2.441 6.196-2.367 4.496.16 8.152 4.13 8.152 8.844zm0 0"/></svg>